<svg xmlns="http://www.w3.org/2000/svg" xmlns:xlink="http://www.w3.org/1999/xlink" width="60" height="60" viewBox="0 0 60 60" fill="none">
  <path fill-rule="evenodd"  fill="rgba(225, 225, 225, .4)"  d="M40.617 21.2833C40.6725 21.2028 40.705 21.1052 40.705 21C40.705 20.7239 40.4811 20.5 40.205 20.5C40.0288 20.5 39.8739 20.5911 39.7849 20.7288L28.4049 37.7704C28.2691 37.9737 27.9769 37.9916 27.8174 37.8062L20.1761 28.9263L20.174 28.9239C20.0823 28.8174 19.9465 28.75 19.795 28.75C19.5189 28.75 19.295 28.9739 19.295 29.25C19.295 29.3746 19.3406 29.4886 19.416 29.5761L19.4177 29.5781L27.0594 38.4585C27.6504 39.1453 28.7333 39.0792 29.2365 38.3258L40.617 21.2833Z">
  </path>
</svg>
