<svg xmlns="http://www.w3.org/2000/svg" xmlns:xlink="http://www.w3.org/1999/xlink" width="60" height="60" viewBox="0 0 60 60" fill="none">
<path   fill="rgba(225, 225, 225, .4)"  d="M24 19.5L36 19.5C38.4853 19.5 40.5 21.5147 40.5 24L40.5 36C40.5 38.4853 38.4853 40.5 36 40.5L24 40.5C21.5147 40.5 19.5 38.4853 19.5 36L19.5 24C19.5 21.5147 21.5147 19.5 24 19.5L24 20.5C22.067 20.5 20.5 22.067 20.5 24L20.5 36C20.5 37.933 22.067 39.5 24 39.5L36 39.5C37.933 39.5 39.5 37.933 39.5 36L39.5 24C39.5 22.067 37.933 20.5 36 20.5L24 20.5L24 19.5Z">
</path>
</svg>
